ply
format ascii 1.0
comment https://github.com/mikedh/trimesh
element vertex 560
property float x
property float y
property float z
property uchar red
property uchar green
property uchar blue
property uchar alpha
end_header
0.00000000 0.00000000 0.50000000 0 0 0 0
0.29389262 -0.00000000 0.40450850 0 0 0 0
0.47552827 -0.00000000 0.15450850 0 0 0 0
0.47552827 -0.00000000 -0.15450850 0 0 0 0
0.29389262 -0.00000000 -0.40450850 0 0 0 0
0.00000000 -0.00000000 -0.50000000 0 0 0 0
0.00000000 0.00000000 0.55000001 0 0 0 0
0.09989960 0.30745935 0.44495934 0 0 0 0
-0.42318147 0.30745935 0.16995935 0 0 0 0
-0.42318147 -0.30745935 -0.16995935 0 0 0 0
0.09989960 -0.30745935 -0.44495934 0 0 0 0
0.00000000 -0.00000000 -0.55000001 0 0 0 0
0.00000000 0.00000000 0.60000002 0 0 0 0
-0.05792893 -0.25380322 0.54058135 0 0 0 0
-0.42264348 0.20353438 0.37409389 0 0 0 0
0.36471456 0.45733759 0.13351256 0 0 0 0
0.36471456 -0.45733759 -0.13351256 0 0 0 0
-0.42264348 -0.20353438 -0.37409389 0 0 0 0
-0.05792893 0.25380322 -0.54058135 0 0 0 0
0.00000000 0.00000000 -0.60000002 0 0 0 0
0.00000000 0.00000000 0.64999998 0 0 0 0
-0.20890598 0.07603556 0.61080021 0 0 0 0
0.32006252 -0.26856434 0.49792889 0 0 0 0
-0.28145826 0.48750001 0.32499999 0 0 0 0
0.11115655 -0.63040012 0.11287132 0 0 0 0
0.11115655 0.63040012 -0.11287132 0 0 0 0
-0.28145826 -0.48750001 -0.32499999 0 0 0 0
0.32006252 0.26856434 -0.49792889 0 0 0 0
-0.20890598 -0.07603556 -0.61080021 0 0 0 0
0.00000000 0.00000000 -0.64999998 0 0 0 0
0.00000000 0.00000000 0.69999999 0 0 0 0
-0.02806631 0.19520545 0.67164510 0 0 0 0
-0.36311874 -0.10662128 0.58887750 0 0 0 0
0.21976480 -0.48121780 0.45840251 0 0 0 0
0.53566182 0.34424892 0.29079050 0 0 0 0
-0.45373663 0.52363998 0.09962039 0 0 0 0
-0.45373663 -0.52363998 -0.09962039 0 0 0 0
0.53566182 -0.34424892 -0.29079050 0 0 0 0
0.21976480 0.48121780 -0.45840251 0 0 0 0
-0.36311874 0.10662128 -0.58887750 0 0 0 0
-0.02806631 -0.19520545 -0.67164510 0 0 0 0
0.00000000 0.00000000 -0.69999999 0 0 0 0
0.00000000 0.00000000 0.75000000 0 0 0 0
0.10196009 0.14771470 0.72820634 0 0 0 0
-0.12359483 0.32589278 0.66409200 0 0 0 0
-0.48289013 0.11902173 0.56138307 0 0 0 0
-0.46200919 -0.40930444 0.42604855 0 0 0 0
0.08452781 -0.69614917 0.26595366 0 0 0 0
0.65925002 -0.34600112 0.09040251 0 0 0 0
0.65925002 0.34600112 -0.09040251 0 0 0 0
0.08452781 0.69614917 -0.26595366 0 0 0 0
-0.46200919 0.40930444 -0.42604855 0 0 0 0
-0.48289013 -0.11902173 -0.56138307 0 0 0 0
-0.12359483 -0.32589278 -0.66409200 0 0 0 0
0.10196009 -0.14771470 -0.72820634 0 0 0 0
0.00000000 0.00000000 -0.75000000 0 0 0 0
0.00000000 0.00000000 0.80000001 0 0 0 0
0.15194942 0.06765224 0.78251809 0 0 0 0
0.21772794 0.24181138 0.73083639 0 0 0 0
0.14530851 0.44721359 0.64721358 0 0 0 0
-0.06214383 0.59125906 0.53530449 0 0 0 0
-0.34641016 0.60000002 0.40000001 0 0 0 0
-0.61553669 0.44721359 0.24721360 0 0 0 0
-0.77823138 0.16541818 0.08362277 0 0 0 0
-0.77823138 -0.16541818 -0.08362277 0 0 0 0
-0.61553669 -0.44721359 -0.24721360 0 0 0 0
-0.34641016 -0.60000002 -0.40000001 0 0 0 0
-0.06214383 -0.59125906 -0.53530449 0 0 0 0
0.14530851 -0.44721359 -0.64721358 0 0 0 0
0.21772794 -0.24181138 -0.73083639 0 0 0 0
0.15194942 -0.06765224 -0.78251809 0 0 0 0
0.00000000 0.00000000 -0.80000001 0 0 0 0
0.00000000 0.00000000 0.85000002 0 0 0 0
0.15618709 0.00000000 0.83552712 0 0 0 0
0.30705541 0.00000000 0.79260141 0 0 0 0
0.44746733 0.00000000 0.72268456 0 0 0 0
0.57264131 0.00000000 0.62815756 0 0 0 0
0.67831463 0.00000000 0.51223946 0 0 0 0
0.76088881 0.00000000 0.37887761 0 0 0 0
0.81755179 0.00000000 0.23261355 0 0 0 0
0.84637403 0.00000000 0.07842810 0 0 0 0
0.84637403 0.00000000 -0.07842810 0 0 0 0
0.81755179 0.00000000 -0.23261355 0 0 0 0
0.76088881 0.00000000 -0.37887761 0 0 0 0
0.67831463 0.00000000 -0.51223946 0 0 0 0
0.57264131 0.00000000 -0.62815756 0 0 0 0
0.44746733 0.00000000 -0.72268456 0 0 0 0
0.30705541 0.00000000 -0.79260141 0 0 0 0
0.15618709 0.00000000 -0.83552712 0 0 0 0
-0.00000000 -0.00000000 -0.85000002 0 0 0 0
0.00000000 0.00000000 0.89999998 0 0 0 0
0.14010876 -0.04809940 0.88772517 0 0 0 0
0.23061015 -0.17949109 0.85123551 0 0 0 0
0.23428670 -0.35860249 0.79152638 0 0 0 0
0.13570228 -0.53587615 0.71022648 0 0 0 0
-0.05468004 -0.65988994 0.60955340 0 0 0 0
-0.30265734 -0.68998927 0.49225333 0 0 0 0
-0.55821276 -0.60638070 0.36152589 0 0 0 0
-0.76730585 -0.41524518 0.22093694 0 0 0 0
-0.88469315 -0.14762917 0.07432141 0 0 0 0
-0.88469315 0.14762917 -0.07432141 0 0 0 0
-0.76730585 0.41524518 -0.22093694 0 0 0 0
-0.55821276 0.60638070 -0.36152589 0 0 0 0
-0.30265734 0.68998927 -0.49225333 0 0 0 0
-0.05468004 0.65988994 -0.60955340 0 0 0 0
0.13570228 0.53587615 -0.71022648 0 0 0 0
0.23428670 0.35860249 -0.79152638 0 0 0 0
0.23061015 0.17949109 -0.85123551 0 0 0 0
0.14010876 0.04809940 -0.88772517 0 0 0 0
0.00000000 0.00000000 -0.89999998 0 0 0 0
0.00000000 0.00000000 0.94999999 0 0 0 0
0.11698727 -0.07976057 0.93938929 0 0 0 0
0.10230185 -0.26066086 0.90779418 0 0 0 0
-0.09172080 -0.40185511 0.85592043 0 0 0 0
-0.39229569 -0.36399719 0.78492683 0 0 0 0
-0.63894701 -0.09630577 0.69639927 0 0 0 0
-0.66918552 0.32226276 0.59231532 0 0 0 0
-0.41136205 0.71249998 0.47499999 0 0 0 0
0.06608607 0.88185728 0.34707397 0 0 0 0
0.57746476 0.72411788 0.21139489 0 0 0 0
0.90525579 0.27923444 0.07099359 0 0 0 0
0.90525579 -0.27923444 -0.07099359 0 0 0 0
0.57746476 -0.72411788 -0.21139489 0 0 0 0
0.06608607 -0.88185728 -0.34707397 0 0 0 0
-0.41136205 -0.71249998 -0.47499999 0 0 0 0
-0.66918552 -0.32226276 -0.59231532 0 0 0 0
-0.63894701 0.09630577 -0.69639927 0 0 0 0
-0.39229569 0.36399719 -0.78492683 0 0 0 0
-0.09172080 0.40185511 -0.85592043 0 0 0 0
0.10230185 0.26066086 -0.90779418 0 0 0 0
0.11698727 0.07976057 -0.93938929 0 0 0 0
0.00000000 0.00000000 -0.94999999 0 0 0 0
0.00000000 0.00000000 1.00000000 0 0 0 0
0.09294097 -0.09951548 0.99068594 0 0 0 0
-0.01841158 -0.26916781 0.96291727 0 0 0 0
-0.30904421 -0.25142613 0.91721129 0 0 0 0
-0.51474452 0.07075001 0.85441941 0 0 0 0
-0.36393601 0.51557988 0.77571130 0 0 0 0
0.14869297 0.71554989 0.68255317 0 0 0 0
0.69803494 0.42448443 0.57668030 0 0 0 0
0.85496002 -0.23954856 0.46006504 0 0 0 0
0.43350130 -0.83661956 0.33487961 0 0 0 0
-0.32787529 -0.92255270 0.20345601 0 0 0 0
-0.91507310 -0.39747232 0.06824242 0 0 0 0
-0.91507310 0.39747232 -0.06824242 0 0 0 0
-0.32787529 0.92255270 -0.20345601 0 0 0 0
0.43350130 0.83661956 -0.33487961 0 0 0 0
0.85496002 0.23954856 -0.46006504 0 0 0 0
0.69803494 -0.42448443 -0.57668030 0 0 0 0
0.14869297 -0.71554989 -0.68255317 0 0 0 0
-0.36393601 -0.51557988 -0.77571130 0 0 0 0
-0.51474452 -0.07075001 -0.85441941 0 0 0 0
-0.30904421 0.25142613 -0.91721129 0 0 0 0
-0.01841158 0.26916781 -0.96291727 0 0 0 0
0.09294097 0.09951548 -0.99068594 0 0 0 0
0.00000000 0.00000000 -1.00000000 0 0 0 0
0.00000000 0.00000000 1.04999995 0 0 0 0
0.07051475 -0.11111347 1.04172039 0 0 0 0
-0.11118136 -0.23627241 1.01701236 0 0 0 0
-0.38348287 -0.04844515 0.97626531 0 0 0 0
-0.32243541 0.38975745 0.92012203 0 0 0 0
0.19071741 0.58696783 0.84946787 0 0 0 0
0.69619286 0.17875195 0.76541704 0 0 0 0
0.58976400 -0.55382526 0.66929519 0 0 0 0
-0.16612184 -0.87084121 0.56261814 0 0 0 0
-0.88335127 -0.34974352 0.44706824 0 0 0 0
-0.80789191 0.58696783 0.32446784 0 0 0 0
0.06476224 1.02936637 0.19675039 0 0 0 0
0.91830635 0.50484318 0.06593005 0 0 0 0
0.91830635 -0.50484318 -0.06593005 0 0 0 0
0.06476224 -1.02936637 -0.19675039 0 0 0 0
-0.80789191 -0.58696783 -0.32446784 0 0 0 0
-0.88335127 0.34974352 -0.44706824 0 0 0 0
-0.16612184 0.87084121 -0.56261814 0 0 0 0
0.58976400 0.55382526 -0.66929519 0 0 0 0
0.69619286 -0.17875195 -0.76541704 0 0 0 0
0.19071741 -0.58696783 -0.84946787 0 0 0 0
-0.32243541 -0.38975745 -0.92012203 0 0 0 0
-0.38348287 0.04844515 -0.97626531 0 0 0 0
-0.11118136 0.23627241 -1.01701236 0 0 0 0
0.07051475 0.11111347 -1.04172039 0 0 0 0
0.00000000 0.00000000 -1.04999995 0 0 0 0
0.00000000 0.00000000 1.10000002 0 0 0 0
0.00643879 -0.11875650 1.09355175 0 0 0 0
-0.23508130 -0.02556663 1.07428265 0 0 0 0
-0.05682296 0.34660473 1.04241848 0 0 0 0
0.45107955 0.09929012 0.99833298 0 0 0 0
0.15171780 -0.54643810 0.94254291 0 0 0 0
-0.63084477 -0.21255636 0.87570238 0 0 0 0
-0.27999818 0.70274246 0.79859507 0 0 0 0
0.76089150 0.35202590 0.71212488 0 0 0 0
0.42646617 -0.80440050 0.61730576 0 0 0 0
-0.83274800 -0.50104785 0.51524931 0 0 0 0
-0.57346267 0.84579420 0.40715197 0 0 0 0
0.84378302 0.64142716 0.29428118 0 0 0 0
0.70274377 -0.82733393 0.17796020 0 0 0 0
-0.79742384 -0.75535995 0.05955280 0 0 0 0
-0.79742384 0.75535995 -0.05955280 0 0 0 0
0.70274377 0.82733393 -0.17796020 0 0 0 0
0.84378302 -0.64142716 -0.29428118 0 0 0 0
-0.57346267 -0.84579420 -0.40715197 0 0 0 0
-0.83274800 0.50104785 -0.51524931 0 0 0 0
0.42646617 0.80440050 -0.61730576 0 0 0 0
0.76089150 -0.35202590 -0.71212488 0 0 0 0
-0.27999818 -0.70274246 -0.79859507 0 0 0 0
-0.63084477 0.21255636 -0.87570238 0 0 0 0
0.15171780 0.54643810 -0.94254291 0 0 0 0
0.45107955 -0.09929012 -0.99833298 0 0 0 0
-0.05682296 -0.34660473 -1.04241848 0 0 0 0
-0.23508130 0.02556663 -1.07428265 0 0 0 0
0.00643879 0.11875650 -1.09355175 0 0 0 0
0.00000000 0.00000000 -1.10000002 0 0 0 0
0.00000000 0.00000000 1.14999998 0 0 0 0
-0.00589271 -0.11619424 1.14409971 0 0 0 0
-0.23030558 0.02341979 1.12645948 0 0 0 0
0.05213168 0.34029761 1.09726012 0 0 0 0
0.44422588 -0.09129073 1.05680144 0 0 0 0
-0.13988850 -0.54028118 1.00549865 0 0 0 0
-0.62682986 0.19666913 0.94387794 0 0 0 0
0.26015884 0.70244980 0.87257183 0 0 0 0
0.76596206 -0.32870021 0.79231197 0 0 0 0
-0.40049097 -0.81645638 0.70392185 0 0 0 0
-0.85331064 0.47362602 0.60830861 0 0 0 0
0.54614222 0.87620419 0.50645328 0 0 0 0
0.88512355 -0.61606419 0.39940104 0 0 0 0
-0.68145066 -0.88036168 0.28825042 0 0 0 0
-0.86250961 0.74044025 0.17414194 0 0 0 0
0.79129505 0.83244193 0.05824655 0 0 0 0
0.79129505 -0.83244193 -0.05824655 0 0 0 0
-0.86250961 -0.74044025 -0.17414194 0 0 0 0
-0.68145066 0.88036168 -0.28825042 0 0 0 0
0.88512355 0.61606419 -0.39940104 0 0 0 0
0.54614222 -0.87620419 -0.50645328 0 0 0 0
-0.85331064 -0.47362602 -0.60830861 0 0 0 0
-0.40049097 0.81645638 -0.70392185 0 0 0 0
0.76596206 0.32870021 -0.79231197 0 0 0 0
0.26015884 -0.70244980 -0.87257183 0 0 0 0
-0.62682986 -0.19666913 -0.94387794 0 0 0 0
-0.13988850 0.54028118 -1.00549865 0 0 0 0
0.44422588 0.09129073 -1.05680144 0 0 0 0
0.05213168 -0.34029761 -1.09726012 0 0 0 0
-0.23030558 -0.02341979 -1.12645948 0 0 0 0
-0.00589271 0.11619424 -1.14409971 0 0 0 0
0.00000000 0.00000000 -1.14999998 0 0 0 0
0.00000000 0.00000000 1.20000005 0 0 0 0
-0.04227659 -0.09891100 1.19516921 0 0 0 0
-0.14807279 0.15487202 1.18071556 0 0 0 0
0.29888758 0.11217438 1.15675545 0 0 0 0
-0.01891725 -0.42122522 1.12348187 0 0 0 0
-0.46909890 0.22590612 1.08116269 0 0 0 0
0.46349978 0.40494755 1.03013861 0 0 0 0
0.21796276 -0.67082042 0.97082037 0 0 0 0
-0.78634804 0.07077261 0.90368575 0 0 0 0
0.41101182 0.76378793 0.82927519 0 0 0 0
0.58495677 -0.73351258 0.74818778 0 0 0 0
-0.96539712 -0.26643267 0.66107637 0 0 0 0
0.14184625 1.04715109 0.56864238 0 0 0 0
0.94724101 -0.56595016 0.47163004 0 0 0 0
-0.92330503 -0.67082042 0.37082040 0 0 0 0
-0.26033023 1.14058137 0.26702511 0 0 0 0
1.17002976 -0.21232909 0.16107991 0 0 0 0
-0.66041070 -1.00047946 0.05383779 0 0 0 0
-0.66041070 1.00047946 -0.05383779 0 0 0 0
1.17002976 0.21232909 -0.16107991 0 0 0 0
-0.26033023 -1.14058137 -0.26702511 0 0 0 0
-0.92330503 0.67082042 -0.37082040 0 0 0 0
0.94724101 0.56595016 -0.47163004 0 0 0 0
0.14184625 -1.04715109 -0.56864238 0 0 0 0
-0.96539712 0.26643267 -0.66107637 0 0 0 0
0.58495677 0.73351258 -0.74818778 0 0 0 0
0.41101182 -0.76378793 -0.82927519 0 0 0 0
-0.78634804 -0.07077261 -0.90368575 0 0 0 0
0.21796276 0.67082042 -0.97082037 0 0 0 0
0.46349978 -0.40494755 -1.03013861 0 0 0 0
-0.46909890 -0.22590612 -1.08116269 0 0 0 0
-0.01891725 0.42122522 -1.12348187 0 0 0 0
0.29888758 -0.11217438 -1.15675545 0 0 0 0
-0.14807279 -0.15487202 -1.18071556 0 0 0 0
-0.04227659 0.09891100 -1.19516921 0 0 0 0
0.00000000 0.00000000 -1.20000005 0 0 0 0
0.00000000 0.00000000 1.25000000 0 0 0 0
-0.04772493 -0.09465675 1.24549687 0 0 0 0
-0.12561686 0.16984522 1.23201990 0 0 0 0
0.31044197 0.05323062 1.20966613 0 0 0 0
-0.12193865 -0.39817148 1.17859685 0 0 0 0
-0.37171826 0.35626310 1.13903558 0 0 0 0
0.57479572 0.20308824 1.09126759 0 0 0 0
-0.08890847 -0.69429904 1.03563702 0 0 0 0
-0.65060788 0.43973419 0.97254467 0 0 0 0
0.75509048 0.42181885 0.90244514 0 0 0 0
0.03982430 -0.93749493 0.82584339 0 0 0 0
-0.91578138 0.41395926 0.74329150 0 0 0 0
0.82815015 0.66868454 0.65538412 0 0 0 0
0.23515122 -1.09110546 0.56275469 0 0 0 0
-1.12243593 0.29225960 0.46607059 0 0 0 0
0.78964400 0.89720988 0.36602846 0 0 0 0
0.45560977 -1.13382852 0.26334909 0 0 0 0
-1.23540890 0.10514879 0.15877227 0 0 0 0
0.65479356 1.06345236 0.05305151 0 0 0 0
0.65479356 -1.06345236 -0.05305151 0 0 0 0
-1.23540890 -0.10514879 -0.15877227 0 0 0 0
0.45560977 1.13382852 -0.26334909 0 0 0 0
0.78964400 -0.89720988 -0.36602846 0 0 0 0
-1.12243593 -0.29225960 -0.46607059 0 0 0 0
0.23515122 1.09110546 -0.56275469 0 0 0 0
0.82815015 -0.66868454 -0.65538412 0 0 0 0
-0.91578138 -0.41395926 -0.74329150 0 0 0 0
0.03982430 0.93749493 -0.82584339 0 0 0 0
0.75509048 -0.42181885 -0.90244514 0 0 0 0
-0.65060788 -0.43973419 -0.97254467 0 0 0 0
-0.08890847 0.69429904 -1.03563702 0 0 0 0
0.57479572 -0.20308824 -1.09126759 0 0 0 0
-0.37171826 -0.35626310 -1.13903558 0 0 0 0
-0.12193865 0.39817148 -1.17859685 0 0 0 0
0.31044197 -0.05323062 -1.20966613 0 0 0 0
-0.12561686 -0.16984522 -1.23201990 0 0 0 0
-0.04772493 0.09465675 -1.24549687 0 0 0 0
0.00000000 0.00000000 -1.25000000 0 0 0 0
0.00000000 0.00000000 1.29999995 0 0 0 0
-0.06620924 -0.07429252 1.29618549 0 0 0 0
-0.02275825 0.19713475 1.28476453 0 0 0 0
0.24227850 -0.17041489 1.26580405 0 0 0 0
-0.38191915 -0.08937252 1.23941529 0 0 0 0
0.23215377 0.42692375 1.20575321 0 0 0 0
0.19498023 -0.54288328 1.16501522 0 0 0 0
-0.61616242 0.24833576 1.11744046 0 0 0 0
0.67025501 0.33186439 1.06330812 0 0 0 0
-0.21917023 -0.79754871 1.00293589 0 0 0 0
-0.49000561 0.75665623 0.93667805 0 0 0 0
0.95914513 -0.14814906 0.86492342 0 0 0 0
-0.79762781 -0.65779883 0.78809303 0 0 0 0
0.04179499 1.09037435 0.70663780 0 0 0 0
0.82288319 -0.79194564 0.62103575 0 0 0 0
-1.18277395 -0.09080691 0.53178924 0 0 0 0
0.74170589 0.97302657 0.43942195 0 0 0 0
0.23866089 -1.23060036 0.34447595 0 0 0 0
-1.09700060 0.65217268 0.24750844 0 0 0 0
1.23123777 0.38964882 0.14908846 0 0 0 0
-0.53139901 -1.18538415 0.04979355 0 0 0 0
-0.53139901 1.18538415 -0.04979355 0 0 0 0
1.23123777 -0.38964882 -0.14908846 0 0 0 0
-1.09700060 -0.65217268 -0.24750844 0 0 0 0
0.23866089 1.23060036 -0.34447595 0 0 0 0
0.74170589 -0.97302657 -0.43942195 0 0 0 0
-1.18277395 0.09080691 -0.53178924 0 0 0 0
0.82288319 0.79194564 -0.62103575 0 0 0 0
0.04179499 -1.09037435 -0.70663780 0 0 0 0
-0.79762781 0.65779883 -0.78809303 0 0 0 0
0.95914513 0.14814906 -0.86492342 0 0 0 0
-0.49000561 -0.75665623 -0.93667805 0 0 0 0
-0.21917023 0.79754871 -1.00293589 0 0 0 0
0.67025501 -0.33186439 -1.06330812 0 0 0 0
-0.61616242 -0.24833576 -1.11744046 0 0 0 0
0.19498023 0.54288328 -1.16501522 0 0 0 0
0.23215377 -0.42692375 -1.20575321 0 0 0 0
-0.38191915 0.08937252 -1.23941529 0 0 0 0
0.24227850 0.17041489 -1.26580405 0 0 0 0
-0.02275825 -0.19713475 -1.28476453 0 0 0 0
-0.06620924 0.07429252 -1.29618549 0 0 0 0
0.00000000 0.00000000 -1.29999995 0 0 0 0
0.00000000 0.00000000 1.35000002 0 0 0 0
-0.06839662 -0.07094193 1.34639859 0 0 0 0
-0.00717883 0.19643044 1.33561349 0 0 0 0
0.21861354 -0.19587858 1.31770241 0 0 0 0
-0.38789621 -0.02839034 1.29276085 0 0 0 0
0.30848980 0.37068906 1.26092172 0 0 0 0
0.06267151 -0.56957901 1.22235513 0 0 0 0
-0.52295291 0.40381110 1.17726672 0 0 0 0
0.73694849 0.10845634 1.12589705 0 0 0 0
-0.48008278 -0.67103279 1.06852031 0 0 0 0
-0.16363308 0.88589483 1.00544250 0 0 0 0
0.81053722 -0.53624636 0.93700016 0 0 0 0
-1.01284826 -0.22562157 0.86355859 0 0 0 0
0.57196182 0.93719500 0.78550953 0 0 0 0
0.29146796 -1.11488044 0.70326948 0 0 0 0
-1.04699290 0.58760089 0.61727715 0 0 0 0
1.18978751 0.35795373 0.52799135 0 0 0 0
-0.58421564 -1.13630688 0.43588856 0 0 0 0
-0.42171505 1.23614776 0.34146008 0 0 0 0
1.20202208 -0.56348479 0.24520975 0 0 0 0
-1.25335741 -0.47936860 0.14765114 0 0 0 0
0.52763915 1.24163842 0.04930473 0 0 0 0
0.52763915 -1.24163842 -0.04930473 0 0 0 0
-1.25335741 0.47936860 -0.14765114 0 0 0 0
1.20202208 0.56348479 -0.24520975 0 0 0 0
-0.42171505 -1.23614776 -0.34146008 0 0 0 0
-0.58421564 1.13630688 -0.43588856 0 0 0 0
1.18978751 -0.35795373 -0.52799135 0 0 0 0
-1.04699290 -0.58760089 -0.61727715 0 0 0 0
0.29146796 1.11488044 -0.70326948 0 0 0 0
0.57196182 -0.93719500 -0.78550953 0 0 0 0
-1.01284826 0.22562157 -0.86355859 0 0 0 0
0.81053722 0.53624636 -0.93700016 0 0 0 0
-0.16363308 -0.88589483 -1.00544250 0 0 0 0
-0.48008278 0.67103279 -1.06852031 0 0 0 0
0.73694849 -0.10845634 -1.12589705 0 0 0 0
-0.52295291 -0.40381110 -1.17726672 0 0 0 0
0.06267151 0.56957901 -1.22235513 0 0 0 0
0.30848980 -0.37068906 -1.26092172 0 0 0 0
-0.38789621 0.02839034 -1.29276085 0 0 0 0
0.21861354 0.19587858 -1.31770241 0 0 0 0
-0.00717883 -0.19643044 -1.33561349 0 0 0 0
-0.06839662 0.07094193 -1.34639859 0 0 0 0
0.00000000 0.00000000 -1.35000002 0 0 0 0
0.00000000 0.00000000 1.39999998 0 0 0 0
-0.07709327 -0.05292154 1.39687359 0 0 0 0
0.06706612 0.17413312 1.38750851 0 0 0 0
0.06464545 -0.27126384 1.37194633 0 0 0 0
-0.27431750 0.24810554 1.35025680 0 0 0 0
0.45513728 -0.06121001 1.32253671 0 0 0 0
-0.48780170 -0.24649732 1.28890979 0 0 0 0
0.30344611 0.55371863 1.24952638 0 0 0 0
0.07141460 -0.70988017 1.20456219 0 0 0 0
-0.51154768 0.60506141 1.15421820 0 0 0 0
0.83682156 -0.22922909 1.09871912 0 0 0 0
-0.88713741 -0.30804768 1.03831291 0 0 0 0
0.59694833 0.81018478 0.97326940 0 0 0 0
-0.03572439 -1.06851602 0.90387899 0 0 0 0
-0.60647160 0.95002228 0.83045167 0 0 0 0
1.08641219 -0.46067855 0.75331527 0 0 0 0
-1.20312834 -0.24454659 0.67281443 0 0 0 0
0.88284385 0.91285378 0.58930868 0 0 0 0
-0.21730146 -1.28825426 0.50317091 0 0 0 0
-0.56285018 1.21291077 0.41478580 0 0 0 0
1.17174828 -0.69402760 0.32454821 0 0 0 0
-1.37741554 -0.09220712 0.23286110 0 0 0 0
1.09320116 0.86329234 0.14013396 0 0 0 0
-0.41455418 -1.33639681 0.04678097 0 0 0 0
-0.41455418 1.33639681 -0.04678097 0 0 0 0
1.09320116 -0.86329234 -0.14013396 0 0 0 0
-1.37741554 0.09220712 -0.23286110 0 0 0 0
1.17174828 0.69402760 -0.32454821 0 0 0 0
-0.56285018 -1.21291077 -0.41478580 0 0 0 0
-0.21730146 1.28825426 -0.50317091 0 0 0 0
0.88284385 -0.91285378 -0.58930868 0 0 0 0
-1.20312834 0.24454659 -0.67281443 0 0 0 0
1.08641219 0.46067855 -0.75331527 0 0 0 0
-0.60647160 -0.95002228 -0.83045167 0 0 0 0
-0.03572439 1.06851602 -0.90387899 0 0 0 0
0.59694833 -0.81018478 -0.97326940 0 0 0 0
-0.88713741 0.30804768 -1.03831291 0 0 0 0
0.83682156 0.22922909 -1.09871912 0 0 0 0
-0.51154768 -0.60506141 -1.15421820 0 0 0 0
0.07141460 0.70988017 -1.20456219 0 0 0 0
0.30344611 -0.55371863 -1.24952638 0 0 0 0
-0.48780170 0.24649732 -1.28890979 0 0 0 0
0.45513728 0.06121001 -1.32253671 0 0 0 0
-0.27431750 -0.24810554 -1.35025680 0 0 0 0
0.06464545 0.27126384 -1.37194633 0 0 0 0
0.06706612 -0.17413312 -1.38750851 0 0 0 0
-0.07709327 0.05292154 -1.39687359 0 0 0 0
-0.00000000 -0.00000000 -1.39999998 0 0 0 0
0.00000000 0.00000000 1.45000005 0 0 0 0
-0.08109262 -0.03730853 1.44724977 0 0 0 0
0.11593239 0.13531686 1.43900979 0 0 0 0
-0.07291389 -0.25626576 1.42531097 0 0 0 0
-0.05425078 0.34948933 1.40620553 0 0 0 0
0.24280383 -0.36642775 1.38176584 0 0 0 0
-0.44534409 0.27574539 1.35208476 0 0 0 0
0.60144901 -0.07447553 1.31727469 0 0 0 0
-0.65370452 -0.20795839 1.27746773 0 0 0 0
0.56410521 0.51424980 1.23281479 0 0 0 0
-0.32655171 -0.77150893 1.18348551 0 0 0 0
-0.02799392 0.90860838 1.12966681 0 0 0 0
0.43542337 -0.87444806 1.07156289 0 0 0 0
-0.81100130 0.65261030 1.00939417 0 0 0 0
1.06787944 -0.26858246 0.94339651 0 0 0 0
-1.13742268 -0.21262115 0.87382025 0 0 0 0
0.98655635 0.69836879 0.80092919 0 0 0 0
-0.62786841 -1.08749998 0.72500002 0 0 0 0
0.11976311 1.29244983 0.64632064 0 0 0 0
0.44379768 -1.25940633 0.56518954 0 0 0 0
-0.95201463 0.98179764 0.48191446 0 0 0 0
1.30046976 -0.50380468 0.39681134 0 0 0 0
-1.41374362 -0.08719672 0.31020296 0 0 0 0
1.26234949 0.67786735 0.22241791 0 0 0 0
-0.87009263 -1.15218890 0.13378912 0 0 0 0
0.31005585 1.41575825 0.04465283 0 0 0 0
0.31005585 -1.41575825 -0.04465283 0 0 0 0
-0.87009263 1.15218890 -0.13378912 0 0 0 0
1.26234949 -0.67786735 -0.22241791 0 0 0 0
-1.41374362 0.08719672 -0.31020296 0 0 0 0
1.30046976 0.50380468 -0.39681134 0 0 0 0
-0.95201463 -0.98179764 -0.48191446 0 0 0 0
0.44379768 1.25940633 -0.56518954 0 0 0 0
0.11976311 -1.29244983 -0.64632064 0 0 0 0
-0.62786841 1.08749998 -0.72500002 0 0 0 0
0.98655635 -0.69836879 -0.80092919 0 0 0 0
-1.13742268 0.21262115 -0.87382025 0 0 0 0
1.06787944 0.26858246 -0.94339651 0 0 0 0
-0.81100130 -0.65261030 -1.00939417 0 0 0 0
0.43542337 0.87444806 -1.07156289 0 0 0 0
-0.02799392 -0.90860838 -1.12966681 0 0 0 0
-0.32655171 0.77150893 -1.18348551 0 0 0 0
0.56410521 -0.51424980 -1.23281479 0 0 0 0
-0.65370452 0.20795839 -1.27746773 0 0 0 0
0.60144901 0.07447553 -1.31727469 0 0 0 0
-0.44534409 -0.27574539 -1.35208476 0 0 0 0
0.24280383 0.36642775 -1.38176584 0 0 0 0
-0.05425078 -0.34948933 -1.40620553 0 0 0 0
-0.07291389 0.25626576 -1.42531097 0 0 0 0
0.11593239 -0.13531686 -1.43900979 0 0 0 0
-0.08109262 0.03730853 -1.44724977 0 0 0 0
0.00000000 0.00000000 -1.45000005 0 0 0 0
0.00000000 0.00000000 1.50000000 0 0 0 0
-0.08216447 -0.02412567 1.49755371 0 0 0 0
0.14384352 0.09244262 1.49022257 0 0 0 0
-0.16750243 -0.19330812 1.47803080 0 0 0 0
0.14113523 0.30904305 1.46101785 0 0 0 0
-0.06014208 -0.41829738 1.43923950 0 0 0 0
-0.07173722 0.49894333 1.41276658 0 0 0 0
0.24256296 -0.53113884 1.38168550 0 0 0 0
-0.43340757 0.50017899 1.34609759 0 0 0 0
0.62050807 -0.39877632 1.30611908 0 0 0 0
-0.77811158 0.22847418 1.26188028 0 0 0 0
0.88167787 0.00000000 1.21352553 0 0 0 0
-0.91105652 -0.26751032 1.16121244 0 0 0 0
0.85325181 0.54835165 1.10511172 0 0 0 0
-0.70443219 -0.81295806 1.04540634 0 0 0 0
0.47092459 1.03118098 0.98229110 0 0 0 0
-0.16904916 -1.17576277 0.91597182 0 0 0 0
-0.17621535 1.22560465 0.84666485 0 0 0 0
0.53361034 -1.16844368 0.77459621 0 0 0 0
-0.86877060 1.00261474 0.70000100 0 0 0 0
1.14784670 -0.73767626 0.62312251 0 0 0 0
-1.34117544 0.39380464 0.54421157 0 0 0 0
1.42658472 0.00000000 0.46352550 0 0 0 0
-1.39195597 -0.40871513 0.38132751 0 0 0 0
1.23674691 0.79480898 0.29788569 0 0 0 0
-0.97229278 -1.12208569 0.21347226 0 0 0 0
0.62083673 1.35944283 0.12836251 0 0 0 0
-0.21338519 -1.48412669 0.04283408 0 0 0 0
-0.21338519 1.48412669 -0.04283408 0 0 0 0
0.62083673 -1.35944283 -0.12836251 0 0 0 0
-0.97229278 1.12208569 -0.21347226 0 0 0 0
1.23674691 -0.79480898 -0.29788569 0 0 0 0
-1.39195597 0.40871513 -0.38132751 0 0 0 0
1.42658472 0.00000000 -0.46352550 0 0 0 0
-1.34117544 -0.39380464 -0.54421157 0 0 0 0
1.14784670 0.73767626 -0.62312251 0 0 0 0
-0.86877060 -1.00261474 -0.70000100 0 0 0 0
0.53361034 1.16844368 -0.77459621 0 0 0 0
-0.17621535 -1.22560465 -0.84666485 0 0 0 0
-0.16904916 1.17576277 -0.91597182 0 0 0 0
0.47092459 -1.03118098 -0.98229110 0 0 0 0
-0.70443219 0.81295806 -1.04540634 0 0 0 0
0.85325181 -0.54835165 -1.10511172 0 0 0 0
-0.91105652 0.26751032 -1.16121244 0 0 0 0
0.88167787 0.00000000 -1.21352553 0 0 0 0
-0.77811158 -0.22847418 -1.26188028 0 0 0 0
0.62050807 0.39877632 -1.30611908 0 0 0 0
-0.43340757 -0.50017899 -1.34609759 0 0 0 0
0.24256296 0.53113884 -1.38168550 0 0 0 0
-0.07173722 -0.49894333 -1.41276658 0 0 0 0
-0.06014208 0.41829738 -1.43923950 0 0 0 0
0.14113523 -0.30904305 -1.46101785 0 0 0 0
-0.16750243 0.19330812 -1.47803080 0 0 0 0
0.14384352 -0.09244262 -1.49022257 0 0 0 0
-0.08216447 0.02412567 -1.49755371 0 0 0 0
0.00000000 0.00000000 -1.50000000 0 0 0 0
