ply
format ascii 1.0
comment https://github.com/mikedh/trimesh
element vertex 212
property float x
property float y
property float z
property uchar red
property uchar green
property uchar blue
property uchar alpha
end_header
0.00000000 0.00000000 0.50000000 0 0 0 0
0.29389262 -0.00000000 0.40450850 0 0 0 0
0.47552827 -0.00000000 0.15450850 0 0 0 0
0.47552827 -0.00000000 -0.15450850 0 0 0 0
0.29389262 -0.00000000 -0.40450850 0 0 0 0
0.00000000 -0.00000000 -0.50000000 0 0 0 0
0.00000000 0.00000000 0.55000001 0 0 0 0
0.09989960 0.30745935 0.44495934 0 0 0 0
-0.42318147 0.30745935 0.16995935 0 0 0 0
-0.42318147 -0.30745935 -0.16995935 0 0 0 0
0.09989960 -0.30745935 -0.44495934 0 0 0 0
0.00000000 -0.00000000 -0.55000001 0 0 0 0
0.00000000 0.00000000 0.60000002 0 0 0 0
-0.05792893 -0.25380322 0.54058135 0 0 0 0
-0.42264348 0.20353438 0.37409389 0 0 0 0
0.36471456 0.45733759 0.13351256 0 0 0 0
0.36471456 -0.45733759 -0.13351256 0 0 0 0
-0.42264348 -0.20353438 -0.37409389 0 0 0 0
-0.05792893 0.25380322 -0.54058135 0 0 0 0
0.00000000 0.00000000 -0.60000002 0 0 0 0
0.00000000 0.00000000 0.64999998 0 0 0 0
-0.20890598 0.07603556 0.61080021 0 0 0 0
0.32006252 -0.26856434 0.49792889 0 0 0 0
-0.28145826 0.48750001 0.32499999 0 0 0 0
0.11115655 -0.63040012 0.11287132 0 0 0 0
0.11115655 0.63040012 -0.11287132 0 0 0 0
-0.28145826 -0.48750001 -0.32499999 0 0 0 0
0.32006252 0.26856434 -0.49792889 0 0 0 0
-0.20890598 -0.07603556 -0.61080021 0 0 0 0
0.00000000 0.00000000 -0.64999998 0 0 0 0
0.00000000 0.00000000 0.69999999 0 0 0 0
-0.02806631 0.19520545 0.67164510 0 0 0 0
-0.36311874 -0.10662128 0.58887750 0 0 0 0
0.21976480 -0.48121780 0.45840251 0 0 0 0
0.53566182 0.34424892 0.29079050 0 0 0 0
-0.45373663 0.52363998 0.09962039 0 0 0 0
-0.45373663 -0.52363998 -0.09962039 0 0 0 0
0.53566182 -0.34424892 -0.29079050 0 0 0 0
0.21976480 0.48121780 -0.45840251 0 0 0 0
-0.36311874 0.10662128 -0.58887750 0 0 0 0
-0.02806631 -0.19520545 -0.67164510 0 0 0 0
0.00000000 0.00000000 -0.69999999 0 0 0 0
0.00000000 0.00000000 0.75000000 0 0 0 0
0.10196009 0.14771470 0.72820634 0 0 0 0
-0.12359483 0.32589278 0.66409200 0 0 0 0
-0.48289013 0.11902173 0.56138307 0 0 0 0
-0.46200919 -0.40930444 0.42604855 0 0 0 0
0.08452781 -0.69614917 0.26595366 0 0 0 0
0.65925002 -0.34600112 0.09040251 0 0 0 0
0.65925002 0.34600112 -0.09040251 0 0 0 0
0.08452781 0.69614917 -0.26595366 0 0 0 0
-0.46200919 0.40930444 -0.42604855 0 0 0 0
-0.48289013 -0.11902173 -0.56138307 0 0 0 0
-0.12359483 -0.32589278 -0.66409200 0 0 0 0
0.10196009 -0.14771470 -0.72820634 0 0 0 0
0.00000000 0.00000000 -0.75000000 0 0 0 0
0.00000000 0.00000000 0.80000001 0 0 0 0
0.15194942 0.06765224 0.78251809 0 0 0 0
0.21772794 0.24181138 0.73083639 0 0 0 0
0.14530851 0.44721359 0.64721358 0 0 0 0
-0.06214383 0.59125906 0.53530449 0 0 0 0
-0.34641016 0.60000002 0.40000001 0 0 0 0
-0.61553669 0.44721359 0.24721360 0 0 0 0
-0.77823138 0.16541818 0.08362277 0 0 0 0
-0.77823138 -0.16541818 -0.08362277 0 0 0 0
-0.61553669 -0.44721359 -0.24721360 0 0 0 0
-0.34641016 -0.60000002 -0.40000001 0 0 0 0
-0.06214383 -0.59125906 -0.53530449 0 0 0 0
0.14530851 -0.44721359 -0.64721358 0 0 0 0
0.21772794 -0.24181138 -0.73083639 0 0 0 0
0.15194942 -0.06765224 -0.78251809 0 0 0 0
0.00000000 0.00000000 -0.80000001 0 0 0 0
0.00000000 0.00000000 0.85000002 0 0 0 0
0.15618709 0.00000000 0.83552712 0 0 0 0
0.30705541 0.00000000 0.79260141 0 0 0 0
0.44746733 0.00000000 0.72268456 0 0 0 0
0.57264131 0.00000000 0.62815756 0 0 0 0
0.67831463 0.00000000 0.51223946 0 0 0 0
0.76088881 0.00000000 0.37887761 0 0 0 0
0.81755179 0.00000000 0.23261355 0 0 0 0
0.84637403 0.00000000 0.07842810 0 0 0 0
0.84637403 0.00000000 -0.07842810 0 0 0 0
0.81755179 0.00000000 -0.23261355 0 0 0 0
0.76088881 0.00000000 -0.37887761 0 0 0 0
0.67831463 0.00000000 -0.51223946 0 0 0 0
0.57264131 0.00000000 -0.62815756 0 0 0 0
0.44746733 0.00000000 -0.72268456 0 0 0 0
0.30705541 0.00000000 -0.79260141 0 0 0 0
0.15618709 0.00000000 -0.83552712 0 0 0 0
-0.00000000 -0.00000000 -0.85000002 0 0 0 0
0.00000000 0.00000000 0.89999998 0 0 0 0
0.14010876 -0.04809940 0.88772517 0 0 0 0
0.23061015 -0.17949109 0.85123551 0 0 0 0
0.23428670 -0.35860249 0.79152638 0 0 0 0
0.13570228 -0.53587615 0.71022648 0 0 0 0
-0.05468004 -0.65988994 0.60955340 0 0 0 0
-0.30265734 -0.68998927 0.49225333 0 0 0 0
-0.55821276 -0.60638070 0.36152589 0 0 0 0
-0.76730585 -0.41524518 0.22093694 0 0 0 0
-0.88469315 -0.14762917 0.07432141 0 0 0 0
-0.88469315 0.14762917 -0.07432141 0 0 0 0
-0.76730585 0.41524518 -0.22093694 0 0 0 0
-0.55821276 0.60638070 -0.36152589 0 0 0 0
-0.30265734 0.68998927 -0.49225333 0 0 0 0
-0.05468004 0.65988994 -0.60955340 0 0 0 0
0.13570228 0.53587615 -0.71022648 0 0 0 0
0.23428670 0.35860249 -0.79152638 0 0 0 0
0.23061015 0.17949109 -0.85123551 0 0 0 0
0.14010876 0.04809940 -0.88772517 0 0 0 0
0.00000000 0.00000000 -0.89999998 0 0 0 0
0.00000000 0.00000000 0.94999999 0 0 0 0
0.11698727 -0.07976057 0.93938929 0 0 0 0
0.10230185 -0.26066086 0.90779418 0 0 0 0
-0.09172080 -0.40185511 0.85592043 0 0 0 0
-0.39229569 -0.36399719 0.78492683 0 0 0 0
-0.63894701 -0.09630577 0.69639927 0 0 0 0
-0.66918552 0.32226276 0.59231532 0 0 0 0
-0.41136205 0.71249998 0.47499999 0 0 0 0
0.06608607 0.88185728 0.34707397 0 0 0 0
0.57746476 0.72411788 0.21139489 0 0 0 0
0.90525579 0.27923444 0.07099359 0 0 0 0
0.90525579 -0.27923444 -0.07099359 0 0 0 0
0.57746476 -0.72411788 -0.21139489 0 0 0 0
0.06608607 -0.88185728 -0.34707397 0 0 0 0
-0.41136205 -0.71249998 -0.47499999 0 0 0 0
-0.66918552 -0.32226276 -0.59231532 0 0 0 0
-0.63894701 0.09630577 -0.69639927 0 0 0 0
-0.39229569 0.36399719 -0.78492683 0 0 0 0
-0.09172080 0.40185511 -0.85592043 0 0 0 0
0.10230185 0.26066086 -0.90779418 0 0 0 0
0.11698727 0.07976057 -0.93938929 0 0 0 0
0.00000000 0.00000000 -0.94999999 0 0 0 0
0.00000000 0.00000000 1.00000000 0 0 0 0
0.09294097 -0.09951548 0.99068594 0 0 0 0
-0.01841158 -0.26916781 0.96291727 0 0 0 0
-0.30904421 -0.25142613 0.91721129 0 0 0 0
-0.51474452 0.07075001 0.85441941 0 0 0 0
-0.36393601 0.51557988 0.77571130 0 0 0 0
0.14869297 0.71554989 0.68255317 0 0 0 0
0.69803494 0.42448443 0.57668030 0 0 0 0
0.85496002 -0.23954856 0.46006504 0 0 0 0
0.43350130 -0.83661956 0.33487961 0 0 0 0
-0.32787529 -0.92255270 0.20345601 0 0 0 0
-0.91507310 -0.39747232 0.06824242 0 0 0 0
-0.91507310 0.39747232 -0.06824242 0 0 0 0
-0.32787529 0.92255270 -0.20345601 0 0 0 0
0.43350130 0.83661956 -0.33487961 0 0 0 0
0.85496002 0.23954856 -0.46006504 0 0 0 0
0.69803494 -0.42448443 -0.57668030 0 0 0 0
0.14869297 -0.71554989 -0.68255317 0 0 0 0
-0.36393601 -0.51557988 -0.77571130 0 0 0 0
-0.51474452 -0.07075001 -0.85441941 0 0 0 0
-0.30904421 0.25142613 -0.91721129 0 0 0 0
-0.01841158 0.26916781 -0.96291727 0 0 0 0
0.09294097 0.09951548 -0.99068594 0 0 0 0
0.00000000 0.00000000 -1.00000000 0 0 0 0
0.00000000 0.00000000 1.04999995 0 0 0 0
0.07051475 -0.11111347 1.04172039 0 0 0 0
-0.11118136 -0.23627241 1.01701236 0 0 0 0
-0.38348287 -0.04844515 0.97626531 0 0 0 0
-0.32243541 0.38975745 0.92012203 0 0 0 0
0.19071741 0.58696783 0.84946787 0 0 0 0
0.69619286 0.17875195 0.76541704 0 0 0 0
0.58976400 -0.55382526 0.66929519 0 0 0 0
-0.16612184 -0.87084121 0.56261814 0 0 0 0
-0.88335127 -0.34974352 0.44706824 0 0 0 0
-0.80789191 0.58696783 0.32446784 0 0 0 0
0.06476224 1.02936637 0.19675039 0 0 0 0
0.91830635 0.50484318 0.06593005 0 0 0 0
0.91830635 -0.50484318 -0.06593005 0 0 0 0
0.06476224 -1.02936637 -0.19675039 0 0 0 0
-0.80789191 -0.58696783 -0.32446784 0 0 0 0
-0.88335127 0.34974352 -0.44706824 0 0 0 0
-0.16612184 0.87084121 -0.56261814 0 0 0 0
0.58976400 0.55382526 -0.66929519 0 0 0 0
0.69619286 -0.17875195 -0.76541704 0 0 0 0
0.19071741 -0.58696783 -0.84946787 0 0 0 0
-0.32243541 -0.38975745 -0.92012203 0 0 0 0
-0.38348287 0.04844515 -0.97626531 0 0 0 0
-0.11118136 0.23627241 -1.01701236 0 0 0 0
0.07051475 0.11111347 -1.04172039 0 0 0 0
0.00000000 0.00000000 -1.04999995 0 0 0 0
0.00000000 0.00000000 1.10000002 0 0 0 0
0.00643879 -0.11875650 1.09355175 0 0 0 0
-0.23508130 -0.02556663 1.07428265 0 0 0 0
-0.05682296 0.34660473 1.04241848 0 0 0 0
0.45107955 0.09929012 0.99833298 0 0 0 0
0.15171780 -0.54643810 0.94254291 0 0 0 0
-0.63084477 -0.21255636 0.87570238 0 0 0 0
-0.27999818 0.70274246 0.79859507 0 0 0 0
0.76089150 0.35202590 0.71212488 0 0 0 0
0.42646617 -0.80440050 0.61730576 0 0 0 0
-0.83274800 -0.50104785 0.51524931 0 0 0 0
-0.57346267 0.84579420 0.40715197 0 0 0 0
0.84378302 0.64142716 0.29428118 0 0 0 0
0.70274377 -0.82733393 0.17796020 0 0 0 0
-0.79742384 -0.75535995 0.05955280 0 0 0 0
-0.79742384 0.75535995 -0.05955280 0 0 0 0
0.70274377 0.82733393 -0.17796020 0 0 0 0
0.84378302 -0.64142716 -0.29428118 0 0 0 0
-0.57346267 -0.84579420 -0.40715197 0 0 0 0
-0.83274800 0.50104785 -0.51524931 0 0 0 0
0.42646617 0.80440050 -0.61730576 0 0 0 0
0.76089150 -0.35202590 -0.71212488 0 0 0 0
-0.27999818 -0.70274246 -0.79859507 0 0 0 0
-0.63084477 0.21255636 -0.87570238 0 0 0 0
0.15171780 0.54643810 -0.94254291 0 0 0 0
0.45107955 -0.09929012 -0.99833298 0 0 0 0
-0.05682296 -0.34660473 -1.04241848 0 0 0 0
-0.23508130 0.02556663 -1.07428265 0 0 0 0
0.00643879 0.11875650 -1.09355175 0 0 0 0
0.00000000 0.00000000 -1.10000002 0 0 0 0
