ply
format ascii 1.0
comment https://github.com/mikedh/trimesh
element vertex 12
property float x
property float y
property float z
property uchar red
property uchar green
property uchar blue
property uchar alpha
end_header
0.00000000 0.00000000 0.50000000 0 0 0 0
0.29389262 -0.00000000 0.40450850 0 0 0 0
0.47552827 -0.00000000 0.15450850 0 0 0 0
0.47552827 -0.00000000 -0.15450850 0 0 0 0
0.29389262 -0.00000000 -0.40450850 0 0 0 0
0.00000000 -0.00000000 -0.50000000 0 0 0 0
0.00000000 0.00000000 0.55000001 0 0 0 0
0.09989960 0.30745935 0.44495934 0 0 0 0
-0.42318147 0.30745935 0.16995935 0 0 0 0
-0.42318147 -0.30745935 -0.16995935 0 0 0 0
0.09989960 -0.30745935 -0.44495934 0 0 0 0
0.00000000 -0.00000000 -0.55000001 0 0 0 0
