ply
format ascii 1.0
comment https://github.com/mikedh/trimesh
element vertex 20
property float x
property float y
property float z
property uchar red
property uchar green
property uchar blue
property uchar alpha
end_header
0.00000000 0.00000000 0.50000000 0 0 0 0
0.29389262 -0.00000000 0.40450850 0 0 0 0
0.47552827 -0.00000000 0.15450850 0 0 0 0
0.47552827 -0.00000000 -0.15450850 0 0 0 0
0.29389262 -0.00000000 -0.40450850 0 0 0 0
0.00000000 -0.00000000 -0.50000000 0 0 0 0
0.00000000 0.00000000 0.55000001 0 0 0 0
0.09989960 0.30745935 0.44495934 0 0 0 0
-0.42318147 0.30745935 0.16995935 0 0 0 0
-0.42318147 -0.30745935 -0.16995935 0 0 0 0
0.09989960 -0.30745935 -0.44495934 0 0 0 0
0.00000000 -0.00000000 -0.55000001 0 0 0 0
0.00000000 0.00000000 0.60000002 0 0 0 0
-0.05792893 -0.25380322 0.54058135 0 0 0 0
-0.42264348 0.20353438 0.37409389 0 0 0 0
0.36471456 0.45733759 0.13351256 0 0 0 0
0.36471456 -0.45733759 -0.13351256 0 0 0 0
-0.42264348 -0.20353438 -0.37409389 0 0 0 0
-0.05792893 0.25380322 -0.54058135 0 0 0 0
0.00000000 0.00000000 -0.60000002 0 0 0 0
